<svg width="18" height="12" viewBox="0 0 18 12" fill="none" xmlns="http://www.w3.org/2000/svg">
<path d="M17.088 5.8725L11.521 11.4205L10.704 10.594C10.5393 10.4293 10.4728 10.2647 10.5045 10.1C10.5362 9.929 10.628 9.7675 10.78 9.6155L12.756 7.6205C12.9397 7.43683 13.1107 7.27533 13.269 7.136C13.4337 6.99033 13.592 6.85733 13.744 6.737C13.326 6.78767 12.8858 6.82883 12.4235 6.8605C11.9675 6.89217 11.5083 6.908 11.046 6.908H0.0355V4.8085H11.046C11.5147 4.8085 11.977 4.8275 12.433 4.8655C12.8953 4.89717 13.3355 4.93833 13.7535 4.989C13.4495 4.74833 13.117 4.45383 12.756 4.1055L10.7705 2.0915C10.6122 1.94583 10.5172 1.79067 10.4855 1.626C10.4602 1.455 10.5298 1.28717 10.6945 1.1225L11.5115 0.2865L17.088 5.8725Z" fill="#4E2A00"/>
</svg>
