<svg width="23" height="15" viewBox="0 0 23 15" fill="none" xmlns="http://www.w3.org/2000/svg">
<path d="M22.348 7.26L15.316 14.268L14.284 13.224C14.076 13.016 13.992 12.808 14.032 12.6C14.072 12.384 14.188 12.18 14.38 11.988L16.876 9.468C17.108 9.236 17.324 9.032 17.524 8.856C17.732 8.672 17.932 8.504 18.124 8.352C17.596 8.416 17.04 8.468 16.456 8.508C15.88 8.548 15.3 8.568 14.716 8.568H0.808V5.916H14.716C15.308 5.916 15.892 5.94 16.468 5.988C17.052 6.028 17.608 6.08 18.136 6.144C17.752 5.84 17.332 5.468 16.876 5.028L14.368 2.484C14.168 2.3 14.048 2.104 14.008 1.896C13.976 1.68 14.064 1.468 14.272 1.26L15.304 0.204L22.348 7.26Z" fill="#4E2A00"/>
</svg>
